<svg width="1407" height="336" fill="none" xmlns="http://www.w3.org/2000/svg"><path d="M8.614 299.719A5 5 0 0113.448 296h107.629a5 5 0 014.856 3.81l7.35 30c.772 3.15-1.613 6.19-4.856 6.19H5.497c-3.281 0-5.673-3.108-4.833-6.281l7.95-30z" fill="url(#paint0_linear_608_135)"/><path d="M1281.31 4.22a5.014 5.014 0 014.84-3.72h108.35c2.34 0 4.36 1.62 4.88 3.902l6.75 30c.7 3.127-1.68 6.098-4.88 6.098H1278.2c-3.28 0-5.68-3.108-4.84-6.28l7.95-30z" fill="url(#paint1_linear_608_135)"/><defs><linearGradient id="paint0_linear_608_135" x1="-1" y1="316" x2="134.8" y2="316" gradientUnits="userSpaceOnUse"><stop stop-color="#747474"/><stop offset="1" stop-color="#969696"/></linearGradient><linearGradient id="paint1_linear_608_135" x1="-1" y1="316" x2="134.8" y2="316" gradientUnits="userSpaceOnUse"><stop stop-color="#747474"/><stop offset="1" stop-color="#969696"/></linearGradient></defs></svg>