<svg width="50" height="50" fill="none" xmlns="http://www.w3.org/2000/svg"><path d="M30.24 13.576H19.76a6.191 6.191 0 00-6.184 6.185v10.478a6.191 6.191 0 006.184 6.184h10.48a6.191 6.191 0 006.185-6.184V19.76a6.191 6.191 0 00-6.185-6.185v0zm4.844 16.663a4.85 4.85 0 01-4.845 4.845H19.761a4.85 4.85 0 01-4.845-4.845V19.76a4.85 4.85 0 014.845-4.845H30.24a4.85 4.85 0 014.845 4.845v10.478z" fill="#F96603" stroke="#F96603" stroke-width=".5"/><path d="M25 18.753A6.254 6.254 0 0018.753 25 6.254 6.254 0 0025 31.247 6.254 6.254 0 0031.247 25 6.254 6.254 0 0025 18.753zm0 11.155A4.913 4.913 0 0120.092 25 4.913 4.913 0 0125 20.092 4.913 4.913 0 0129.908 25 4.913 4.913 0 0125 29.908z" fill="#F96603" stroke="#F96603" stroke-width=".5"/><path d="M31.397 16.534a1.848 1.848 0 00-1.846 1.846c0 1.018.828 1.846 1.846 1.846a1.848 1.848 0 001.846-1.846 1.848 1.848 0 00-1.846-1.846zm0 2.353a.507.507 0 11.001-1.015.507.507 0 01-.001 1.015z" fill="#F96603"/><circle cx="25" cy="25" r="24" stroke="#F96603" stroke-width="2"/></svg>