<svg width="70" height="70" fill="none" xmlns="http://www.w3.org/2000/svg"><path d="M28.198 43H13.802c-3.213 0-5.375-3.293-4.097-6.241l2.026-4.674a10.102 10.102 0 0118.538 0l2.026 4.674C33.573 39.707 31.41 43 28.197 43z" stroke="#fff" stroke-width="2"/><path d="M28.198 43H13.802c-3.213 0-5.375-3.293-4.097-6.241l2.026-4.674a10.102 10.102 0 0118.538 0l2.026 4.674C33.573 39.707 31.41 43 28.197 43zm27.999 0H41.802c-3.213 0-5.375-3.293-4.097-6.241l2.026-4.674a10.102 10.102 0 0118.538 0l2.026 4.674C61.573 39.707 59.41 43 56.197 43z" stroke="#fff" stroke-width="2"/><path d="M56.197 43H41.802c-3.213 0-5.375-3.293-4.097-6.241l2.026-4.674a10.102 10.102 0 0118.538 0l2.026 4.674C61.573 39.707 59.41 43 56.197 43z" stroke="#fff" stroke-width="2"/><circle cx="21" cy="20" r="6" stroke="#fff" stroke-width="2"/><circle cx="21" cy="20" r="6" stroke="#fff" stroke-width="2"/><circle cx="49" cy="20" r="6" stroke="#fff" stroke-width="2"/><circle cx="49" cy="20" r="6" stroke="#fff" stroke-width="2"/><path d="M42.197 56H27.802c-3.213 0-5.375-3.293-4.097-6.241l2.026-4.674a10.102 10.102 0 0118.538 0l2.026 4.674C47.573 52.707 45.41 56 42.197 56z" fill="#4D5359" stroke="#F96603" stroke-width="2"/><circle cx="35" cy="33" r="6" fill="#4D5359" stroke="#F96603" stroke-width="2"/></svg>