<svg width="70" height="70" fill="none" xmlns="http://www.w3.org/2000/svg"><path d="M8.293 15.293a1 1 0 000 1.414l6.364 6.364a1 1 0 001.414-1.414L10.414 16l5.657-5.657a1 1 0 00-1.414-1.414l-6.364 6.364zm53.414 39.414a1 1 0 000-1.414l-6.364-6.364a1 1 0 00-1.414 1.414L59.586 54l-5.657 5.657a1 1 0 001.414 1.414l6.364-6.364zM9 17h7.347v-2H9v2zm45.347 38H61v-2h-6.653v2zm-20-20c0 11.046 8.954 20 20 20v-2c-9.941 0-18-8.059-18-18h-2zm-18-18c9.94 0 18 8.059 18 18h2c0-11.046-8.955-20-20-20v2z" fill="#fff"/><path d="M8.293 54.707a1 1 0 010-1.414l6.364-6.364a1 1 0 011.414 1.414L10.414 54l5.657 5.657a1 1 0 01-1.414 1.414l-6.364-6.364zm53.414-39.414a1 1 0 010 1.414l-6.364 6.364a1 1 0 01-1.414-1.414L59.586 16l-5.657-5.657a1 1 0 011.414-1.414l6.364 6.364zM9 53h7.347v2H9v-2zm45.347-38H61v2h-6.653v-2zm-20 20c0-11.046 8.954-20 20-20v2c-9.941 0-18 8.059-18 18h-2zm-18 18c9.94 0 18-8.059 18-18h2c0 11.046-8.955 20-20 20v-2z" fill="#F96603"/></svg>