<svg width="70" height="70" fill="none" xmlns="http://www.w3.org/2000/svg"><path d="M47.946 48.009a18.233 18.233 0 01-12.974 5.372c-10.107 0-18.332-8.22-18.342-18.325l3.74 3.746a.634.634 0 00.895 0 .637.637 0 000-.895l-4.959-4.96-4.958 4.96a.63.63 0 10.892.895l3.15-3.151c.328 10.527 8.971 18.995 19.576 18.995a19.49 19.49 0 0013.87-5.744.632.632 0 000-.893.625.625 0 00-.89 0z" fill="#F96603" stroke="#F96603"/><path d="M58.651 31.199a.632.632 0 00-.893 0l-3.146 3.15c-.332-10.528-8.975-18.994-19.579-18.994a19.487 19.487 0 00-13.87 5.744.629.629 0 000 .893.629.629 0 00.892 0 18.231 18.231 0 0112.973-5.373c10.107 0 18.333 8.219 18.346 18.325l-3.744-3.746a.634.634 0 00-.894 0 .637.637 0 000 .895l4.96 4.96 4.957-4.96a.632.632 0 00-.002-.894z" fill="#fff" stroke="#fff"/></svg>