<svg width="50" height="51" fill="none" xmlns="http://www.w3.org/2000/svg"><path fill-rule="evenodd" clip-rule="evenodd" d="M48 25.5c0 12.703-10.297 23-23 23S2 38.203 2 25.5s10.297-23 23-23 23 10.297 23 23zm2 0c0 13.807-11.193 25-25 25S0 39.307 0 25.5 11.193.5 25 .5s25 11.193 25 25zm-16.409-9.591a11.561 11.561 0 00-8.23-3.409c-1.538 0-3.037.298-4.454.885a11.582 11.582 0 00-3.776 2.524 11.563 11.563 0 00-3.408 8.23c0 1.854.447 3.696 1.295 5.337l-1.957 5.59a1.07 1.07 0 00.256 1.117 1.07 1.07 0 001.118.255l5.588-1.956a11.673 11.673 0 005.338 1.295c3.11 0 6.032-1.21 8.23-3.409A11.563 11.563 0 0037 24.138c0-3.108-1.21-6.03-3.409-8.23zm-.995 15.464a10.163 10.163 0 01-7.235 2.997c-1.671 0-3.332-.414-4.803-1.197a1.084 1.084 0 00-.864-.067l-5.078 1.777 1.778-5.077a1.084 1.084 0 00-.068-.865 10.257 10.257 0 01-1.196-4.802c0-2.733 1.065-5.302 2.997-7.235a10.165 10.165 0 017.233-2.996 10.17 10.17 0 017.236 2.996 10.163 10.163 0 012.996 7.235c0 2.732-1.064 5.302-2.996 7.234zm-2.91-6.195a1.375 1.375 0 00-1.941 0l-.586.586a8.524 8.524 0 01-3.423-3.423l.586-.586a1.374 1.374 0 000-1.942l-1.578-1.578a1.375 1.375 0 00-1.942 0l-1.263 1.263c-.723.723-.759 1.966-.101 3.5.57 1.332 1.615 2.796 2.942 4.122 1.326 1.327 2.79 2.371 4.122 2.942.729.313 1.392.469 1.965.469.633 0 1.156-.19 1.536-.57l1.262-1.263c.26-.26.402-.604.402-.97 0-.368-.143-.712-.402-.972l-1.578-1.578zm-.679 3.787c-.206.207-.84.28-1.95-.196-1.172-.502-2.48-1.441-3.682-2.644-1.203-1.203-2.142-2.51-2.643-3.681-.476-1.11-.404-1.745-.197-1.951l1.238-1.238 1.53 1.53-.734.732a1.074 1.074 0 00-.199 1.251 9.93 9.93 0 004.362 4.362c.417.212.92.133 1.25-.2l.734-.732 1.53 1.53-1.239 1.237z" fill="#F96603"/></svg>